<svg width="64" height="64" viewBox="0 0 64 64" fill="none" xmlns="http://www.w3.org/2000/svg"><path d="M24 35l7-7c3-3 7-3 10 0l2 2" stroke="white" stroke-width="3.4" stroke-linecap="round" stroke-linejoin="round"/><path d="M17 32l7-7 8 8-7 7c-2 2-5 2-7 0l-1-1c-2-2-2-5 0-7Z" stroke="white" stroke-width="3.4" stroke-linejoin="round"/><path d="M47 32l-7-7-9 9 9 9c2 2 5 2 7 0l1-1c2-2 2-5 0-7l-1-3Z" stroke="white" stroke-width="3.4" stroke-linejoin="round"/><path d="M25 40l5 5m4-10 9 9m-4-14 8 8" stroke="white" stroke-width="3.4" stroke-linecap="round"/></svg>
