<svg width="64" height="64" viewBox="0 0 64 64" fill="none" xmlns="http://www.w3.org/2000/svg"><circle cx="32" cy="32" r="8" stroke="white" stroke-width="3.6"/><path d="M32 8v8m0 32v8M13.5 13.5l5.7 5.7m25.6 25.6 5.7 5.7M8 32h8m32 0h8M50.5 13.5l-5.7 5.7M19.2 44.8l-5.7 5.7" stroke="white" stroke-width="3.6" stroke-linecap="round"/><path d="M24 12.5 28 8h8l4 4.5M51.5 24l4.5 4v8l-4.5 4M40 51.5 36 56h-8l-4-4.5M12.5 40 8 36v-8l4.5-4" stroke="white" stroke-width="3.2" stroke-linecap="round" stroke-linejoin="round"/></svg>
